<svg width="545" height="806" viewBox="0 0 545 806" fill="none" xmlns="http://www.w3.org/2000/svg">
<g filter="url(#filter0_d_250_100)">
<mask id="path-1-outside-1_250_100" maskUnits="userSpaceOnUse" x="52" y="49" width="441" height="701" fill="black">
<rect fill="white" x="52" y="49" width="441" height="701"/>
<path d="M53 61C53 54.3726 58.3726 49 65 49H480C486.627 49 492 54.3726 492 61V737C492 743.627 486.627 749 480 749H65C58.3726 749 53 743.627 53 737V61Z"/>
</mask>
<path d="M53 61C53 54.3726 58.3726 49 65 49H480C486.627 49 492 54.3726 492 61V737C492 743.627 486.627 749 480 749H65C58.3726 749 53 743.627 53 737V61Z" fill="white"/>
<path d="M53 49H492H53ZM493 737C493 744.18 487.18 750 480 750H65C57.8203 750 52 744.18 52 737H54C54 743.075 58.9249 748 65 748H480C486.075 748 491 743.075 491 737H493ZM65 750C57.8203 750 52 744.18 52 737V62C52 54.8203 57.8203 49 65 49C58.9249 49 54 54.3726 54 61V737C54 743.075 58.9249 748 65 748V750ZM480 49C487.18 49 493 54.8203 493 62V737C493 744.18 487.18 750 480 750V748C486.075 748 491 743.075 491 737V61C491 54.3726 486.075 49 480 49Z" fill="#B2B2B2" mask="url(#path-1-outside-1_250_100)"/>
<mask id="path-3-inside-2_250_100" fill="white">
<path d="M53 721H492V737C492 743.627 486.627 749 480 749H65C58.3726 749 53 743.627 53 737V721Z"/>
</mask>
<path d="M53 721H492V737C492 743.627 486.627 749 480 749H65C58.3726 749 53 743.627 53 737V721Z" fill="#EDEEEE"/>
<path d="M53 720H492V722H53V720ZM492 749H53H492ZM53 749V721V749ZM492 721V749V721Z" fill="#DCDDDD" mask="url(#path-3-inside-2_250_100)"/>
<line x1="443.5" y1="722" x2="443.5" y2="749" stroke="#D0D2D2"/>
<rect x="461" y="729" width="14" height="12" rx="2" fill="#EDEEEE" stroke="#241F31" stroke-width="2"/>
<line x1="462" y1="736.5" x2="474" y2="736.5" stroke="#241F31"/>
<path d="M462 737H474V739C474 739.552 473.552 740 473 740H463C462.448 740 462 739.552 462 739V737Z" fill="#9A9996"/>
<path d="M69.432 742.16C71.704 742.16 73.24 740.512 73.24 738.048C73.24 735.664 71.816 734.128 69.624 734.128C67.352 734.128 65.832 735.76 65.832 738.224C65.832 740.608 67.24 742.16 69.432 742.16ZM69.608 741.04C68.12 741.04 67.112 739.84 67.112 738.064C67.112 736.352 68.024 735.248 69.448 735.248C70.936 735.248 71.96 736.464 71.96 738.224C71.96 739.92 71.032 741.04 69.608 741.04ZM80.2861 742H81.9821L77.9661 737.424L77.8701 738.208L81.6301 734.288H80.1101L76.6541 737.888L80.2861 742ZM75.4061 742H76.6861V730.176H75.4061V742ZM82.8149 744.784H83.9669C84.5269 743.392 84.8469 741.68 84.8469 740.096H83.4549C83.4549 741.712 83.2149 743.456 82.8149 744.784ZM92.7283 742.096C93.1443 742.096 93.6403 742 93.9443 741.84L93.6562 740.944C93.4643 741.024 93.2883 741.072 93.0963 741.072C92.5523 741.072 92.2643 740.704 92.2643 740.112V730.176H90.9843V740.272C90.9843 741.376 91.6723 742.096 92.7283 742.096ZM98.5414 742.16C100.813 742.16 102.349 740.512 102.349 738.048C102.349 735.664 100.925 734.128 98.7334 734.128C96.4614 734.128 94.9414 735.76 94.9414 738.224C94.9414 740.608 96.3494 742.16 98.5414 742.16ZM98.7174 741.04C97.2294 741.04 96.2214 739.84 96.2214 738.064C96.2214 736.352 97.1334 735.248 98.5574 735.248C100.045 735.248 101.069 736.464 101.069 738.224C101.069 739.92 100.141 741.04 98.7174 741.04ZM109.284 742H110.18V736.992C110.18 735.152 109.092 734.128 107.076 734.128C106.068 734.128 104.98 734.4 104.148 734.864L104.468 735.808C105.268 735.456 106.068 735.28 106.82 735.28C108.196 735.28 108.9 735.856 108.9 736.992V741.104L109.284 742ZM106.548 742.16C108.388 742.16 109.78 741.008 110.004 739.296L109.54 739.072C109.3 740.256 108.244 741.04 106.916 741.04C105.892 741.04 105.22 740.528 105.22 739.76C105.22 738.784 106.356 738.384 109.092 738.384V737.504C105.492 737.504 103.94 738.224 103.94 739.904C103.94 741.28 104.964 742.16 106.548 742.16ZM115.647 742.16C116.943 742.16 117.951 741.52 118.543 740.464L118.079 739.888C117.647 740.608 116.927 741.04 116.015 741.04C114.479 741.04 113.487 739.84 113.487 738.064C113.487 736.368 114.383 735.248 115.871 735.248C116.847 735.248 117.615 735.696 118.063 736.464L118.655 735.76C118.095 734.72 117.103 734.128 115.823 734.128C113.647 734.128 112.207 735.76 112.207 738.208C112.207 740.576 113.583 742.16 115.647 742.16ZM118.271 742H119.167V730.176H117.887V741.104L118.271 742ZM125.3 742.16C126.18 742.16 127.14 741.952 127.828 741.584L127.54 740.656C126.948 740.944 126.196 741.12 125.524 741.12C123.716 741.12 122.644 739.92 122.644 737.92C122.644 736.176 123.428 735.216 124.836 735.216C126.148 735.216 126.916 736.064 126.916 737.536H122.42V738.496H128.052C128.084 738.256 128.116 737.696 128.116 737.392C128.116 735.456 126.836 734.128 124.932 734.128C122.788 734.128 121.332 735.808 121.332 738.176C121.332 740.64 122.852 742.16 125.3 742.16ZM133.225 742.16C134.521 742.16 135.529 741.52 136.121 740.464L135.657 739.888C135.225 740.608 134.505 741.04 133.593 741.04C132.057 741.04 131.065 739.84 131.065 738.064C131.065 736.368 131.961 735.248 133.449 735.248C134.425 735.248 135.193 735.696 135.641 736.464L136.233 735.76C135.673 734.72 134.681 734.128 133.401 734.128C131.225 734.128 129.785 735.76 129.785 738.208C129.785 740.576 131.161 742.16 133.225 742.16ZM135.849 742H136.745V730.176H135.465V741.104L135.849 742ZM145.722 742.176C148.154 742.176 149.834 740.896 149.834 738.976C149.834 737.344 148.586 736.208 146.698 736.16L146.458 736.352C148.122 736.304 149.258 735.184 149.258 733.648C149.258 731.888 147.834 730.752 145.77 730.752C144.618 730.752 143.338 731.12 142.394 731.664L142.698 732.656C143.69 732.16 144.73 731.904 145.546 731.904C146.97 731.904 148.01 732.64 148.01 733.776C148.01 734.992 146.826 735.808 145.194 735.808H144.33V736.944H145.482C147.338 736.944 148.506 737.744 148.506 739.056C148.506 740.304 147.418 740.992 145.77 740.992C144.794 740.992 143.498 740.752 142.458 740.24L142.17 741.312C143.242 741.856 144.554 742.176 145.722 742.176ZM158.894 742.16C159.774 742.16 160.734 741.952 161.422 741.584L161.134 740.656C160.542 740.944 159.79 741.12 159.118 741.12C157.31 741.12 156.238 739.92 156.238 737.92C156.238 736.176 157.022 735.216 158.43 735.216C159.742 735.216 160.51 736.064 160.51 737.536H156.014V738.496H161.646C161.678 738.256 161.71 737.696 161.71 737.392C161.71 735.456 160.43 734.128 158.526 734.128C156.382 734.128 154.926 735.808 154.926 738.176C154.926 740.64 156.446 742.16 158.894 742.16ZM169.139 742H170.419V736.944C170.419 735.232 169.283 734.128 167.555 734.128C166.435 734.128 165.331 734.608 164.515 735.456L164.819 736.272C165.459 735.616 166.307 735.248 167.203 735.248C168.451 735.248 169.139 735.952 169.139 737.2V742ZM163.875 742H165.155V735.184L164.771 734.288H163.875V742ZM175.593 742.08C176.121 742.08 176.649 741.952 177.017 741.792L176.729 740.864C176.489 740.976 176.137 741.04 175.865 741.04C175.065 741.04 174.537 740.528 174.537 739.76V732.032H173.257V739.936C173.257 741.216 174.185 742.08 175.593 742.08ZM172.217 735.36H176.649V734.288H172.217V735.36ZM178.734 742H180.014V736.08L179.79 734.288H178.734V742ZM179.726 736.992C180.174 736.016 181.102 735.424 182.158 735.424C182.462 735.424 182.75 735.472 183.006 735.568L183.326 734.384C182.99 734.272 182.654 734.208 182.302 734.208C181.262 734.208 180.302 734.768 179.726 735.696V736.992ZM184.766 742H186.046V734.288H184.766V742ZM185.422 732.48C185.998 732.48 186.334 732.144 186.334 731.568C186.334 730.992 185.998 730.656 185.422 730.656C184.846 730.656 184.51 730.992 184.51 731.568C184.51 732.144 184.846 732.48 185.422 732.48ZM192.175 742.16C193.055 742.16 194.015 741.952 194.703 741.584L194.415 740.656C193.823 740.944 193.071 741.12 192.399 741.12C190.591 741.12 189.519 739.92 189.519 737.92C189.519 736.176 190.303 735.216 191.711 735.216C193.023 735.216 193.791 736.064 193.791 737.536H189.295V738.496H194.927C194.959 738.256 194.991 737.696 194.991 737.392C194.991 735.456 193.711 734.128 191.807 734.128C189.663 734.128 188.207 735.808 188.207 738.176C188.207 740.64 189.727 742.16 192.175 742.16ZM199.492 742.16C201.396 742.16 202.564 741.264 202.564 739.84C202.564 737.008 197.956 738.064 197.956 736.32C197.956 735.648 198.676 735.216 199.828 735.216C200.484 735.216 201.252 735.36 201.908 735.584L202.212 734.544C201.556 734.272 200.772 734.128 199.956 734.128C197.956 734.128 196.676 735.008 196.676 736.464C196.676 739.232 201.268 738.08 201.268 739.968C201.268 740.672 200.644 741.072 199.588 741.072C198.772 741.072 197.684 740.848 196.868 740.496L196.564 741.536C197.444 741.936 198.516 742.16 199.492 742.16Z" fill="#241F31"/>
<rect x="89" y="195" width="30" height="27" rx="8" fill="black"/>
<path d="M132.832 201.123H135.82L140.43 209.092L145.107 201.123H147.949V215H145.488V204.619L141.543 211.025H139.219L135.293 204.619V215H132.832V201.123ZM150.367 201.123H152.965L156.158 211.787L160.172 201.123H162.438L165.738 211.787L169.645 201.123H172.242L166.92 215H164.566L161.227 204.385L157.301 215H154.947L150.367 201.123ZM173.859 213.721C174.12 212.959 174.462 212.246 174.885 211.582C175.314 210.918 175.76 210.355 176.223 209.893C176.691 209.43 177.18 209.001 177.688 208.604C178.195 208.2 178.674 207.852 179.123 207.559C179.572 207.259 179.979 206.979 180.344 206.719C180.708 206.452 180.998 206.191 181.213 205.938C181.428 205.677 181.535 205.42 181.535 205.166C181.535 204.658 181.229 204.215 180.617 203.838C180.012 203.454 179.27 203.262 178.391 203.262C177.323 203.262 176.031 203.522 174.514 204.043L174.143 204.17L173.391 202.158L173.742 202.002C175.272 201.351 176.942 201.025 178.752 201.025C180.38 201.025 181.672 201.38 182.629 202.09C183.586 202.793 184.064 203.678 184.064 204.746C184.064 205.208 183.97 205.641 183.781 206.045C183.599 206.449 183.345 206.813 183.02 207.139C182.701 207.464 182.339 207.78 181.936 208.086C181.538 208.392 181.109 208.711 180.646 209.043C180.191 209.368 179.748 209.704 179.318 210.049C178.889 210.387 178.465 210.791 178.049 211.26C177.639 211.729 177.297 212.22 177.023 212.734H184.318V215H173.859V213.721ZM192.928 203.369C192.615 203.278 192.303 203.232 191.99 203.232C191.678 203.232 191.365 203.278 191.053 203.369C190.747 203.46 190.428 203.62 190.096 203.848C189.77 204.069 189.484 204.352 189.236 204.697C188.989 205.036 188.784 205.482 188.621 206.035C188.465 206.582 188.387 207.201 188.387 207.891C188.387 208.639 188.465 209.313 188.621 209.912C188.784 210.511 188.989 210.996 189.236 211.367C189.49 211.732 189.783 212.038 190.115 212.285C190.447 212.526 190.77 212.695 191.082 212.793C191.395 212.884 191.707 212.93 192.02 212.93C192.326 212.93 192.635 212.884 192.947 212.793C193.26 212.695 193.579 212.526 193.904 212.285C194.23 212.044 194.516 211.745 194.764 211.387C195.011 211.022 195.213 210.547 195.369 209.961C195.532 209.368 195.613 208.701 195.613 207.959C195.613 207.256 195.532 206.624 195.369 206.064C195.213 205.505 195.008 205.052 194.754 204.707C194.507 204.362 194.217 204.076 193.885 203.848C193.559 203.62 193.24 203.46 192.928 203.369ZM191.99 200.938C192.537 200.938 193.077 201.006 193.611 201.143C194.152 201.273 194.695 201.51 195.242 201.855C195.789 202.194 196.264 202.62 196.668 203.135C197.078 203.643 197.413 204.31 197.674 205.137C197.934 205.957 198.064 206.885 198.064 207.92C198.064 209.001 197.934 209.971 197.674 210.83C197.42 211.689 197.091 212.386 196.688 212.92C196.284 213.454 195.809 213.896 195.262 214.248C194.715 214.6 194.174 214.847 193.641 214.99C193.113 215.127 192.573 215.195 192.02 215.195C191.635 215.195 191.251 215.16 190.867 215.088C190.483 215.016 190.086 214.896 189.676 214.727C189.272 214.557 188.891 214.346 188.533 214.092C188.175 213.838 187.833 213.516 187.508 213.125C187.189 212.734 186.912 212.295 186.678 211.807C186.45 211.318 186.268 210.742 186.131 210.078C186.001 209.408 185.936 208.682 185.936 207.9C185.936 207.158 186.001 206.468 186.131 205.83C186.268 205.192 186.45 204.639 186.678 204.17C186.912 203.701 187.189 203.281 187.508 202.91C187.833 202.533 188.172 202.223 188.523 201.982C188.882 201.742 189.262 201.543 189.666 201.387C190.07 201.224 190.46 201.11 190.838 201.045C191.222 200.973 191.606 200.938 191.99 200.938ZM204.643 201.123H207.455V212.744H210.814V215H201.127V212.744H204.633V203.545L201.537 204.6L200.59 202.578L204.643 201.123ZM218.77 200.928C219.121 200.928 219.456 200.951 219.775 200.996C220.101 201.042 220.443 201.123 220.801 201.24C221.165 201.357 221.501 201.514 221.807 201.709C222.113 201.898 222.409 202.148 222.695 202.461C222.982 202.773 223.223 203.132 223.418 203.535C223.62 203.939 223.779 204.43 223.896 205.01C224.014 205.583 224.072 206.217 224.072 206.914C224.072 207.812 223.994 208.636 223.838 209.385C223.688 210.133 223.477 210.788 223.203 211.348C222.93 211.908 222.591 212.406 222.188 212.842C221.784 213.278 221.348 213.639 220.879 213.926C220.41 214.212 219.889 214.45 219.316 214.639C218.743 214.821 218.161 214.951 217.568 215.029C216.982 215.107 216.357 215.146 215.693 215.146C215.257 215.146 214.834 215.127 214.424 215.088L214.033 215.049L214.219 212.803L214.629 212.842C214.902 212.874 215.244 212.891 215.654 212.891C216.455 212.891 217.165 212.829 217.783 212.705C218.402 212.575 218.903 212.412 219.287 212.217C219.678 212.021 220.007 211.771 220.273 211.465C220.547 211.159 220.749 210.859 220.879 210.566C221.016 210.273 221.126 209.938 221.211 209.561C220.326 210.042 219.329 210.283 218.223 210.283C216.712 210.283 215.482 209.867 214.531 209.033C213.587 208.193 213.115 207.126 213.115 205.83C213.115 205.166 213.252 204.538 213.525 203.945C213.799 203.346 214.176 202.826 214.658 202.383C215.14 201.94 215.736 201.589 216.445 201.328C217.161 201.061 217.936 200.928 218.77 200.928ZM218.525 203.096C217.738 203.096 217.038 203.363 216.426 203.896C215.82 204.43 215.518 205.023 215.518 205.674C215.518 206.351 215.83 206.927 216.455 207.402C217.08 207.878 217.809 208.115 218.643 208.115C219.469 208.115 220.176 207.887 220.762 207.432C221.348 206.969 221.641 206.419 221.641 205.781C221.641 205.13 221.328 204.521 220.703 203.955C220.085 203.382 219.359 203.096 218.525 203.096ZM232.043 215V201.123H241.779V203.389H234.514V206.719H241.242V208.984H234.514V212.734H241.779V215H232.043ZM244.305 200.244H246.707V215H244.305V200.244ZM249.613 200.244H252.016V215H249.613V200.244ZM254.58 201.123H257.275V203.77H254.58V201.123ZM254.727 205.352H257.129V215H254.727V205.352ZM265.768 212.119C265.755 211.956 265.628 211.813 265.387 211.689C265.152 211.566 264.85 211.455 264.479 211.357C264.107 211.26 263.701 211.159 263.258 211.055C262.815 210.951 262.372 210.824 261.93 210.674C261.493 210.518 261.093 210.339 260.729 210.137C260.364 209.928 260.068 209.658 259.84 209.326C259.612 208.988 259.498 208.604 259.498 208.174C259.498 207.92 259.544 207.666 259.635 207.412C259.732 207.152 259.905 206.885 260.152 206.611C260.4 206.331 260.712 206.087 261.09 205.879C261.467 205.671 261.972 205.501 262.604 205.371C263.235 205.234 263.948 205.166 264.742 205.166C265.211 205.166 265.634 205.192 266.012 205.244C266.389 205.29 266.656 205.332 266.812 205.371C266.969 205.41 267.206 205.479 267.525 205.576L267.926 205.693L267.262 207.666L266.891 207.568C266.044 207.334 265.221 207.217 264.42 207.217C264.016 207.217 263.661 207.246 263.355 207.305C263.049 207.357 262.815 207.422 262.652 207.5C262.496 207.572 262.369 207.66 262.271 207.764C262.174 207.861 262.112 207.946 262.086 208.018C262.06 208.083 262.047 208.145 262.047 208.203C262.047 208.353 262.161 208.49 262.389 208.613C262.623 208.737 262.926 208.851 263.297 208.955C263.668 209.053 264.075 209.16 264.518 209.277C264.967 209.388 265.416 209.525 265.865 209.688C266.314 209.85 266.725 210.036 267.096 210.244C267.467 210.452 267.766 210.719 267.994 211.045C268.229 211.37 268.346 211.735 268.346 212.139C268.346 212.419 268.303 212.689 268.219 212.949C268.141 213.21 267.984 213.48 267.75 213.76C267.522 214.04 267.226 214.284 266.861 214.492C266.497 214.694 266.005 214.863 265.387 215C264.768 215.13 264.059 215.195 263.258 215.195C262.008 215.195 260.761 214.941 259.518 214.434L259.156 214.287L259.879 212.334L260.25 212.48C261.415 212.917 262.447 213.135 263.346 213.135C264.179 213.135 264.791 213.053 265.182 212.891C265.572 212.721 265.768 212.464 265.768 212.119Z" fill="black"/>
<path d="M294.4 215H295.78L295.8 201.12H294.42L294.4 215ZM286.68 211.34H298.38V210.04H286.68V211.34ZM289.3 215H290.68L290.7 201.12H289.32L289.3 215ZM286.68 205.92H298.38V204.62H286.68V205.92ZM300.586 215H309.386V213.56H302.286L302.506 214.04C307.246 209.58 308.846 207.26 308.846 204.84C308.846 202.4 307.186 200.92 304.626 200.92C302.966 200.92 301.386 201.52 300.366 202.5L300.826 203.66C301.886 202.8 303.206 202.38 304.286 202.38C306.066 202.38 307.166 203.44 307.166 205.1C307.166 207.12 305.546 209.22 300.586 213.9V215ZM316.653 215.2C319.553 215.2 321.493 213.7 321.493 211.5C321.493 207.06 313.973 207.92 313.973 204.4C313.973 203.14 314.933 202.32 316.473 202.32C318.113 202.32 319.293 203.22 319.293 204.54C319.293 205.82 318.173 206.92 316.533 207.26L317.773 207.88C319.693 207.32 320.873 205.88 320.873 204.26C320.873 202.26 319.133 200.92 316.673 200.92C314.093 200.92 312.353 202.4 312.353 204.54C312.353 209.1 319.793 208.04 319.793 211.58C319.793 212.92 318.733 213.76 316.913 213.76C314.933 213.76 313.533 212.78 313.533 211.3C313.533 209.88 314.753 208.72 316.613 208.46L315.553 207.78C313.333 208.08 311.833 209.64 311.833 211.54C311.833 213.72 313.793 215.2 316.653 215.2ZM327.914 215.2C330.994 215.2 333.074 213.44 333.074 210.72C333.074 208.12 331.194 206.48 328.074 206.48C327.314 206.48 326.554 206.58 325.854 206.74L326.254 207.26L326.474 202.54H332.414V201.12H324.974L324.634 208.22C325.534 208.02 326.694 207.88 327.574 207.88C329.934 207.88 331.374 208.98 331.374 210.86C331.374 212.66 330.054 213.74 328.014 213.74C326.814 213.74 325.494 213.4 324.454 212.84L323.974 214.16C325.214 214.82 326.514 215.2 327.914 215.2ZM340.411 215.2C343.311 215.2 345.251 213.7 345.251 211.5C345.251 207.06 337.731 207.92 337.731 204.4C337.731 203.14 338.691 202.32 340.231 202.32C341.871 202.32 343.051 203.22 343.051 204.54C343.051 205.82 341.931 206.92 340.291 207.26L341.531 207.88C343.451 207.32 344.631 205.88 344.631 204.26C344.631 202.26 342.891 200.92 340.431 200.92C337.851 200.92 336.111 202.4 336.111 204.54C336.111 209.1 343.551 208.04 343.551 211.58C343.551 212.92 342.491 213.76 340.671 213.76C338.691 213.76 337.291 212.78 337.291 211.3C337.291 209.88 338.511 208.72 340.371 208.46L339.311 207.78C337.091 208.08 335.591 209.64 335.591 211.54C335.591 213.72 337.551 215.2 340.411 215.2ZM351.253 215.1H352.833V201.12H351.873L346.933 203.68L347.533 204.82L351.773 202.8L351.253 202.3V215.1ZM356.77 215H365.57V213.56H358.47L358.69 214.04C363.43 209.58 365.03 207.26 365.03 204.84C365.03 202.4 363.37 200.92 360.81 200.92C359.15 200.92 357.57 201.52 356.55 202.5L357.01 203.66C358.07 202.8 359.39 202.38 360.47 202.38C362.25 202.38 363.35 203.44 363.35 205.1C363.35 207.12 361.73 209.22 356.77 213.9V215ZM367.936 215H376.736V213.56H369.636L369.856 214.04C374.596 209.58 376.196 207.26 376.196 204.84C376.196 202.4 374.536 200.92 371.976 200.92C370.316 200.92 368.736 201.52 367.716 202.5L368.176 203.66C369.236 202.8 370.556 202.38 371.636 202.38C373.416 202.38 374.516 203.44 374.516 205.1C374.516 207.12 372.896 209.22 367.936 213.9V215ZM380.563 215H382.263L388.023 201.92V201.12H378.723V202.56H386.683L386.343 201.96L380.563 215ZM394.813 200.92C392.133 200.92 390.233 202.8 390.233 205.5C390.233 208 391.873 209.66 394.273 209.66C396.353 209.66 397.993 208.44 398.473 206.5L398.133 205.66C397.693 207.32 396.393 208.28 394.733 208.28C392.933 208.28 391.813 207.12 391.813 205.3C391.813 203.54 392.873 202.36 394.613 202.36C396.893 202.36 398.113 204.28 398.113 207.88C398.113 211.78 396.693 213.74 393.753 213.74C392.793 213.74 391.773 213.52 390.893 213.06L390.413 214.36C391.513 214.94 392.553 215.2 393.673 215.2C397.513 215.2 399.733 212.38 399.733 207.66C399.733 203.4 397.933 200.92 394.813 200.92ZM407.293 215.2C410.193 215.2 412.133 213.7 412.133 211.5C412.133 207.06 404.613 207.92 404.613 204.4C404.613 203.14 405.573 202.32 407.113 202.32C408.753 202.32 409.933 203.22 409.933 204.54C409.933 205.82 408.813 206.92 407.173 207.26L408.413 207.88C410.333 207.32 411.513 205.88 411.513 204.26C411.513 202.26 409.773 200.92 407.313 200.92C404.733 200.92 402.993 202.4 402.993 204.54C402.993 209.1 410.433 208.04 410.433 211.58C410.433 212.92 409.373 213.76 407.553 213.76C405.573 213.76 404.173 212.78 404.173 211.3C404.173 209.88 405.393 208.72 407.253 208.46L406.193 207.78C403.973 208.08 402.473 209.64 402.473 211.54C402.473 213.72 404.433 215.2 407.293 215.2Z" fill="#77767B"/>
<line x1="462" y1="204" x2="476" y2="204" stroke="black" stroke-width="2"/>
<line x1="462" y1="210" x2="476" y2="210" stroke="black" stroke-width="2"/>
<path d="M68.3242 201.992C68.8906 201.712 69.5612 201.471 70.3359 201.27C71.1172 201.061 71.9375 200.957 72.7969 200.957C74.2878 200.957 75.4954 201.283 76.4199 201.934C77.3509 202.585 77.8164 203.424 77.8164 204.453C77.8164 205.052 77.6797 205.609 77.4062 206.123C77.1328 206.631 76.7552 207.048 76.2734 207.373C77.0091 207.692 77.5495 208.135 77.8945 208.701C78.2461 209.261 78.4219 209.896 78.4219 210.605C78.4219 212.057 77.8457 213.226 76.6934 214.111C75.5475 214.997 74.0208 215.439 72.1133 215.439C70.6745 215.439 69.3268 215.179 68.0703 214.658L67.7188 214.512L68.4316 212.451L68.793 212.549C70.1732 212.913 71.2865 213.096 72.1328 213.096C73.181 213.096 74.0729 212.894 74.8086 212.49C75.5508 212.08 75.9219 211.553 75.9219 210.908C75.9219 210.713 75.8861 210.524 75.8145 210.342C75.7428 210.16 75.6029 209.967 75.3945 209.766C75.1862 209.564 74.916 209.388 74.584 209.238C74.2585 209.089 73.8092 208.965 73.2363 208.867C72.6634 208.77 72.0059 208.721 71.2637 208.721H70.8047V206.494H71.2637C71.8691 206.494 72.4095 206.455 72.8848 206.377C73.3665 206.299 73.7507 206.201 74.0371 206.084C74.3236 205.96 74.5579 205.817 74.7402 205.654C74.929 205.492 75.056 205.335 75.1211 205.186C75.1927 205.036 75.2285 204.883 75.2285 204.727C75.2285 204.303 74.9811 203.955 74.4863 203.682C73.9915 203.402 73.347 203.262 72.5527 203.262C71.498 203.262 70.3848 203.519 69.2129 204.033L68.832 204.209L67.9922 202.158L68.3242 201.992Z" fill="black"/>
<rect x="89" y="163" width="30" height="27" rx="8" fill="black"/>
<path d="M133.125 169.123H135.586V183H133.125V169.123ZM139.762 169.123H142.477L150.221 179.787V169.123H152.682V183H149.938L142.223 172.316V183H139.762V169.123ZM162.795 168.996C164.09 168.996 165.37 169.188 166.633 169.572L167.033 169.689L166.232 171.955L165.861 171.848C164.683 171.522 163.609 171.359 162.639 171.359C161.682 171.359 160.861 171.516 160.178 171.828C159.501 172.141 159.162 172.541 159.162 173.029C159.162 173.348 159.312 173.628 159.611 173.869C159.917 174.11 160.311 174.315 160.793 174.484C161.275 174.647 161.805 174.81 162.385 174.973C162.971 175.135 163.557 175.324 164.143 175.539C164.729 175.754 165.262 176.001 165.744 176.281C166.226 176.561 166.617 176.936 166.916 177.404C167.222 177.867 167.375 178.4 167.375 179.006C167.375 179.396 167.307 179.784 167.17 180.168C167.04 180.546 166.815 180.92 166.496 181.291C166.184 181.662 165.793 181.988 165.324 182.268C164.862 182.541 164.27 182.766 163.547 182.941C162.831 183.111 162.027 183.195 161.135 183.195C160.243 183.195 159.439 183.114 158.723 182.951C158.007 182.782 157.248 182.541 156.447 182.229L156.086 182.092L156.916 179.729L157.297 179.875C158.944 180.461 160.301 180.754 161.369 180.754C162.372 180.754 163.182 180.601 163.801 180.295C164.426 179.989 164.738 179.585 164.738 179.084C164.738 178.804 164.644 178.553 164.455 178.332C164.266 178.111 164.012 177.925 163.693 177.775C163.374 177.619 163.007 177.476 162.59 177.346C162.18 177.215 161.747 177.089 161.291 176.965C160.835 176.841 160.38 176.708 159.924 176.564C159.468 176.421 159.032 176.249 158.615 176.047C158.205 175.845 157.84 175.617 157.521 175.363C157.202 175.109 156.949 174.794 156.76 174.416C156.571 174.032 156.477 173.605 156.477 173.137C156.477 171.965 157.049 170.982 158.195 170.188C159.348 169.393 160.881 168.996 162.795 168.996ZM169.002 180.549H171.854V183.4H169.002V180.549ZM169.002 172.902H171.854V175.754H169.002V172.902ZM181.264 168.996C182.559 168.996 183.839 169.188 185.102 169.572L185.502 169.689L184.701 171.955L184.33 171.848C183.152 171.522 182.077 171.359 181.107 171.359C180.15 171.359 179.33 171.516 178.646 171.828C177.969 172.141 177.631 172.541 177.631 173.029C177.631 173.348 177.781 173.628 178.08 173.869C178.386 174.11 178.78 174.315 179.262 174.484C179.743 174.647 180.274 174.81 180.854 174.973C181.439 175.135 182.025 175.324 182.611 175.539C183.197 175.754 183.731 176.001 184.213 176.281C184.695 176.561 185.085 176.936 185.385 177.404C185.691 177.867 185.844 178.4 185.844 179.006C185.844 179.396 185.775 179.784 185.639 180.168C185.508 180.546 185.284 180.92 184.965 181.291C184.652 181.662 184.262 181.988 183.793 182.268C183.331 182.541 182.738 182.766 182.016 182.941C181.299 183.111 180.495 183.195 179.604 183.195C178.712 183.195 177.908 183.114 177.191 182.951C176.475 182.782 175.717 182.541 174.916 182.229L174.555 182.092L175.385 179.729L175.766 179.875C177.413 180.461 178.77 180.754 179.838 180.754C180.84 180.754 181.651 180.601 182.27 180.295C182.895 179.989 183.207 179.585 183.207 179.084C183.207 178.804 183.113 178.553 182.924 178.332C182.735 178.111 182.481 177.925 182.162 177.775C181.843 177.619 181.475 177.476 181.059 177.346C180.648 177.215 180.215 177.089 179.76 176.965C179.304 176.841 178.848 176.708 178.393 176.564C177.937 176.421 177.501 176.249 177.084 176.047C176.674 175.845 176.309 175.617 175.99 175.363C175.671 175.109 175.417 174.794 175.229 174.416C175.04 174.032 174.945 173.605 174.945 173.137C174.945 171.965 175.518 170.982 176.664 170.188C177.816 169.393 179.35 168.996 181.264 168.996ZM193.414 169.123H195.875V180.744H202.906V183H193.414V169.123ZM209.035 173.166C210.65 173.166 211.949 173.592 212.932 174.445C213.921 175.292 214.416 176.477 214.416 178C214.416 179.602 213.911 180.868 212.902 181.799C211.9 182.73 210.549 183.195 208.85 183.195C207.235 183.195 205.943 182.759 204.973 181.887C204.009 181.008 203.527 179.803 203.527 178.273C203.527 176.704 204.019 175.461 205.002 174.543C205.992 173.625 207.336 173.166 209.035 173.166ZM208.879 175.334C208.378 175.334 207.906 175.428 207.463 175.617C207.02 175.806 206.646 176.112 206.34 176.535C206.04 176.958 205.891 177.456 205.891 178.029C205.891 178.876 206.184 179.589 206.77 180.168C207.355 180.741 208.117 181.027 209.055 181.027C209.908 181.027 210.62 180.777 211.193 180.275C211.766 179.774 212.053 179.11 212.053 178.283C212.053 177.808 211.958 177.378 211.77 176.994C211.581 176.604 211.333 176.291 211.027 176.057C210.721 175.822 210.383 175.643 210.012 175.52C209.641 175.396 209.263 175.334 208.879 175.334ZM223.631 173.352H226.033V183H224.246L223.963 182.346C222.654 182.912 221.395 183.195 220.184 183.195C219.552 183.195 219.005 183.114 218.543 182.951C218.081 182.782 217.716 182.57 217.449 182.316C217.189 182.056 216.98 181.734 216.824 181.35C216.668 180.965 216.567 180.598 216.521 180.246C216.476 179.895 216.453 179.497 216.453 179.055V173.352H218.855V179.035C218.855 179.204 218.862 179.354 218.875 179.484C218.895 179.615 218.943 179.781 219.021 179.982C219.1 180.178 219.21 180.34 219.354 180.471C219.497 180.601 219.712 180.715 219.998 180.812C220.285 180.91 220.623 180.959 221.014 180.959C221.795 180.959 222.667 180.78 223.631 180.422V173.352ZM228.412 169.123H231.107V171.77H228.412V169.123ZM228.559 173.352H230.961V183H228.559V173.352ZM239.6 180.119C239.587 179.956 239.46 179.813 239.219 179.689C238.984 179.566 238.682 179.455 238.311 179.357C237.939 179.26 237.533 179.159 237.09 179.055C236.647 178.951 236.204 178.824 235.762 178.674C235.326 178.518 234.925 178.339 234.561 178.137C234.196 177.928 233.9 177.658 233.672 177.326C233.444 176.988 233.33 176.604 233.33 176.174C233.33 175.92 233.376 175.666 233.467 175.412C233.564 175.152 233.737 174.885 233.984 174.611C234.232 174.331 234.544 174.087 234.922 173.879C235.299 173.671 235.804 173.501 236.436 173.371C237.067 173.234 237.78 173.166 238.574 173.166C239.043 173.166 239.466 173.192 239.844 173.244C240.221 173.29 240.488 173.332 240.645 173.371C240.801 173.41 241.038 173.479 241.357 173.576L241.758 173.693L241.094 175.666L240.723 175.568C239.876 175.334 239.053 175.217 238.252 175.217C237.848 175.217 237.493 175.246 237.188 175.305C236.882 175.357 236.647 175.422 236.484 175.5C236.328 175.572 236.201 175.66 236.104 175.764C236.006 175.861 235.944 175.946 235.918 176.018C235.892 176.083 235.879 176.145 235.879 176.203C235.879 176.353 235.993 176.49 236.221 176.613C236.455 176.737 236.758 176.851 237.129 176.955C237.5 177.053 237.907 177.16 238.35 177.277C238.799 177.388 239.248 177.525 239.697 177.688C240.146 177.85 240.557 178.036 240.928 178.244C241.299 178.452 241.598 178.719 241.826 179.045C242.061 179.37 242.178 179.735 242.178 180.139C242.178 180.419 242.135 180.689 242.051 180.949C241.973 181.21 241.816 181.48 241.582 181.76C241.354 182.04 241.058 182.284 240.693 182.492C240.329 182.694 239.837 182.863 239.219 183C238.6 183.13 237.891 183.195 237.09 183.195C235.84 183.195 234.593 182.941 233.35 182.434L232.988 182.287L233.711 180.334L234.082 180.48C235.247 180.917 236.279 181.135 237.178 181.135C238.011 181.135 238.623 181.053 239.014 180.891C239.404 180.721 239.6 180.464 239.6 180.119Z" fill="black"/>
<path d="M266.4 183H267.78L267.8 169.12H266.42L266.4 183ZM258.68 179.34H270.38V178.04H258.68V179.34ZM261.3 183H262.68L262.7 169.12H261.32L261.3 183ZM258.68 173.92H270.38V172.62H258.68V173.92ZM272.586 183H281.386V181.56H274.286L274.506 182.04C279.246 177.58 280.846 175.26 280.846 172.84C280.846 170.4 279.186 168.92 276.626 168.92C274.966 168.92 273.386 169.52 272.366 170.5L272.826 171.66C273.886 170.8 275.206 170.38 276.286 170.38C278.066 170.38 279.166 171.44 279.166 173.1C279.166 175.12 277.546 177.22 272.586 181.9V183ZM288.653 183.2C291.553 183.2 293.493 181.7 293.493 179.5C293.493 175.06 285.973 175.92 285.973 172.4C285.973 171.14 286.933 170.32 288.473 170.32C290.113 170.32 291.293 171.22 291.293 172.54C291.293 173.82 290.173 174.92 288.533 175.26L289.773 175.88C291.693 175.32 292.873 173.88 292.873 172.26C292.873 170.26 291.133 168.92 288.673 168.92C286.093 168.92 284.353 170.4 284.353 172.54C284.353 177.1 291.793 176.04 291.793 179.58C291.793 180.92 290.733 181.76 288.913 181.76C286.933 181.76 285.533 180.78 285.533 179.3C285.533 177.88 286.753 176.72 288.613 176.46L287.553 175.78C285.333 176.08 283.833 177.64 283.833 179.54C283.833 181.72 285.793 183.2 288.653 183.2ZM300.854 183.2C303.754 183.2 305.694 181.7 305.694 179.5C305.694 175.06 298.174 175.92 298.174 172.4C298.174 171.14 299.134 170.32 300.674 170.32C302.314 170.32 303.494 171.22 303.494 172.54C303.494 173.82 302.374 174.92 300.734 175.26L301.974 175.88C303.894 175.32 305.074 173.88 305.074 172.26C305.074 170.26 303.334 168.92 300.874 168.92C298.294 168.92 296.554 170.4 296.554 172.54C296.554 177.1 303.994 176.04 303.994 179.58C303.994 180.92 302.934 181.76 301.114 181.76C299.134 181.76 297.734 180.78 297.734 179.3C297.734 177.88 298.954 176.72 300.814 176.46L299.754 175.78C297.534 176.08 296.034 177.64 296.034 179.54C296.034 181.72 297.994 183.2 300.854 183.2ZM312.836 168.92C310.156 168.92 308.256 170.8 308.256 173.5C308.256 176 309.896 177.66 312.296 177.66C314.376 177.66 316.016 176.44 316.496 174.5L316.156 173.66C315.716 175.32 314.416 176.28 312.756 176.28C310.956 176.28 309.836 175.12 309.836 173.3C309.836 171.54 310.896 170.36 312.636 170.36C314.916 170.36 316.136 172.28 316.136 175.88C316.136 179.78 314.716 181.74 311.776 181.74C310.816 181.74 309.796 181.52 308.916 181.06L308.436 182.36C309.536 182.94 310.576 183.2 311.696 183.2C315.536 183.2 317.756 180.38 317.756 175.66C317.756 171.4 315.956 168.92 312.836 168.92ZM325.596 183.2C328.696 183.2 330.616 180.48 330.616 175.96C330.616 171.6 328.756 168.92 325.736 168.92C322.596 168.92 320.656 171.66 320.656 176.16C320.656 180.54 322.536 183.2 325.596 183.2ZM325.716 181.78C323.636 181.78 322.336 179.6 322.336 175.96C322.336 172.46 323.596 170.34 325.616 170.34C327.656 170.34 328.936 172.54 328.936 176.16C328.936 179.66 327.716 181.78 325.716 181.78ZM338.481 183.2C341.581 183.2 343.501 180.48 343.501 175.96C343.501 171.6 341.641 168.92 338.621 168.92C335.481 168.92 333.541 171.66 333.541 176.16C333.541 180.54 335.421 183.2 338.481 183.2ZM338.601 181.78C336.521 181.78 335.221 179.6 335.221 175.96C335.221 172.46 336.481 170.34 338.501 170.34C340.541 170.34 341.821 172.54 341.821 176.16C341.821 179.66 340.601 181.78 338.601 181.78ZM350.146 183.2C353.226 183.2 355.306 181.44 355.306 178.72C355.306 176.12 353.426 174.48 350.306 174.48C349.546 174.48 348.786 174.58 348.086 174.74L348.486 175.26L348.706 170.54H354.646V169.12H347.206L346.866 176.22C347.766 176.02 348.926 175.88 349.806 175.88C352.166 175.88 353.606 176.98 353.606 178.86C353.606 180.66 352.286 181.74 350.246 181.74C349.046 181.74 347.726 181.4 346.686 180.84L346.206 182.16C347.446 182.82 348.746 183.2 350.146 183.2ZM361.983 183.22C365.023 183.22 367.123 181.62 367.123 179.22C367.123 177.18 365.563 175.76 363.203 175.7L362.903 175.94C364.983 175.88 366.403 174.48 366.403 172.56C366.403 170.36 364.623 168.94 362.043 168.94C360.603 168.94 359.003 169.4 357.823 170.08L358.203 171.32C359.443 170.7 360.743 170.38 361.763 170.38C363.543 170.38 364.843 171.3 364.843 172.72C364.843 174.24 363.363 175.26 361.323 175.26H360.243V176.68H361.683C364.003 176.68 365.463 177.68 365.463 179.32C365.463 180.88 364.103 181.74 362.043 181.74C360.823 181.74 359.203 181.44 357.903 180.8L357.543 182.14C358.883 182.82 360.523 183.22 361.983 183.22ZM374.754 183.2C377.854 183.2 379.774 180.48 379.774 175.96C379.774 171.6 377.914 168.92 374.894 168.92C371.754 168.92 369.814 171.66 369.814 176.16C369.814 180.54 371.694 183.2 374.754 183.2ZM374.874 181.78C372.794 181.78 371.494 179.6 371.494 175.96C371.494 172.46 372.754 170.34 374.774 170.34C376.814 170.34 378.094 172.54 378.094 176.16C378.094 179.66 376.874 181.78 374.874 181.78ZM388.919 183.2H390.499V169.12H388.959L381.999 178.88V179.72H392.999V178.36H383.579L383.719 178.7L389.239 170.78L388.939 170.74L388.919 183.2Z" fill="#77767B"/>
<line x1="462" y1="172" x2="476" y2="172" stroke="black" stroke-width="2"/>
<line x1="462" y1="178" x2="476" y2="178" stroke="black" stroke-width="2"/>
<path d="M68.3047 181.721C68.5651 180.959 68.9069 180.246 69.3301 179.582C69.7598 178.918 70.2057 178.355 70.668 177.893C71.1367 177.43 71.625 177.001 72.1328 176.604C72.6406 176.2 73.1191 175.852 73.5684 175.559C74.0176 175.259 74.4245 174.979 74.7891 174.719C75.1536 174.452 75.4434 174.191 75.6582 173.938C75.873 173.677 75.9805 173.42 75.9805 173.166C75.9805 172.658 75.6745 172.215 75.0625 171.838C74.457 171.454 73.7148 171.262 72.8359 171.262C71.7682 171.262 70.4759 171.522 68.959 172.043L68.5879 172.17L67.8359 170.158L68.1875 170.002C69.7174 169.351 71.3874 169.025 73.1973 169.025C74.8249 169.025 76.1172 169.38 77.0742 170.09C78.0312 170.793 78.5098 171.678 78.5098 172.746C78.5098 173.208 78.4154 173.641 78.2266 174.045C78.0443 174.449 77.7904 174.813 77.4648 175.139C77.1458 175.464 76.7845 175.78 76.3809 176.086C75.9837 176.392 75.554 176.711 75.0918 177.043C74.6361 177.368 74.1934 177.704 73.7637 178.049C73.334 178.387 72.9108 178.791 72.4941 179.26C72.084 179.729 71.7422 180.22 71.4688 180.734H78.7637V183H68.3047V181.721Z" fill="black"/>
<rect x="89" y="132" width="30" height="27" rx="8" fill="black"/>
<path d="M131.807 138.123H144.014V139.617L135.049 149.734H144.277V152H131.514V150.486L140.273 140.389H131.807V138.123ZM150.641 142.166C152.255 142.166 153.554 142.592 154.537 143.445C155.527 144.292 156.021 145.477 156.021 147C156.021 148.602 155.517 149.868 154.508 150.799C153.505 151.73 152.154 152.195 150.455 152.195C148.84 152.195 147.548 151.759 146.578 150.887C145.615 150.008 145.133 148.803 145.133 147.273C145.133 145.704 145.624 144.461 146.607 143.543C147.597 142.625 148.941 142.166 150.641 142.166ZM150.484 144.334C149.983 144.334 149.511 144.428 149.068 144.617C148.626 144.806 148.251 145.112 147.945 145.535C147.646 145.958 147.496 146.456 147.496 147.029C147.496 147.876 147.789 148.589 148.375 149.168C148.961 149.741 149.723 150.027 150.66 150.027C151.513 150.027 152.226 149.777 152.799 149.275C153.372 148.774 153.658 148.11 153.658 147.283C153.658 146.808 153.564 146.378 153.375 145.994C153.186 145.604 152.939 145.291 152.633 145.057C152.327 144.822 151.988 144.643 151.617 144.52C151.246 144.396 150.868 144.334 150.484 144.334ZM163.156 142.166C163.716 142.166 164.217 142.228 164.66 142.352C165.109 142.469 165.477 142.622 165.764 142.811C166.057 142.993 166.307 143.234 166.516 143.533C166.73 143.826 166.893 144.109 167.004 144.383C167.115 144.65 167.199 144.972 167.258 145.35C167.323 145.727 167.362 146.046 167.375 146.307C167.388 146.567 167.395 146.876 167.395 147.234V148.328H160.139C160.275 148.81 160.663 149.23 161.301 149.588C161.939 149.939 162.779 150.115 163.82 150.115C164.556 150.115 165.305 150.005 166.066 149.783L166.467 149.666L166.945 151.521L166.594 151.639C165.507 152.01 164.348 152.195 163.117 152.195C162.258 152.195 161.496 152.101 160.832 151.912C160.168 151.723 159.634 151.479 159.23 151.18C158.833 150.88 158.505 150.519 158.244 150.096C157.99 149.673 157.814 149.249 157.717 148.826C157.619 148.403 157.57 147.951 157.57 147.469C157.57 146.753 157.671 146.098 157.873 145.506C158.081 144.907 158.361 144.406 158.713 144.002C159.071 143.592 159.488 143.247 159.963 142.967C160.445 142.687 160.952 142.485 161.486 142.361C162.02 142.231 162.577 142.166 163.156 142.166ZM162.756 144.354C162.007 144.354 161.408 144.542 160.959 144.92C160.51 145.291 160.243 145.757 160.158 146.316H165.031C164.979 145.613 164.758 145.112 164.367 144.812C163.977 144.507 163.439 144.354 162.756 144.354ZM168.152 142.352H170.906L174.08 149.764L176.971 142.352H179.5L173.23 157.186H170.301L172.684 152.078L168.152 142.352ZM184.395 144.49H193.594V146.648H184.395V144.49ZM199.201 138.123H211.74V140.389H206.701V152H204.24V140.389H199.201V138.123ZM213.621 138.123H216.082V149.744H223.113V152H213.621V138.123ZM231.898 137.977C233.311 137.977 234.568 138.253 235.668 138.807C236.768 139.36 237.634 140.167 238.266 141.229C238.897 142.283 239.213 143.51 239.213 144.91C239.213 146.329 238.904 147.589 238.285 148.689C237.667 149.783 236.798 150.633 235.678 151.238C234.558 151.844 233.272 152.146 231.82 152.146C230.863 152.146 229.955 152 229.096 151.707C228.236 151.408 227.465 150.975 226.781 150.408C226.104 149.835 225.564 149.093 225.16 148.182C224.763 147.27 224.564 146.242 224.564 145.096C224.564 143.67 224.877 142.417 225.502 141.336C226.127 140.249 226.993 139.419 228.1 138.846C229.206 138.266 230.473 137.977 231.898 137.977ZM233.178 140.408C232.729 140.291 232.27 140.232 231.801 140.232C231.332 140.232 230.876 140.291 230.434 140.408C229.991 140.519 229.564 140.698 229.154 140.945C228.751 141.186 228.396 141.486 228.09 141.844C227.784 142.202 227.54 142.645 227.357 143.172C227.175 143.693 227.084 144.269 227.084 144.9C227.084 146.404 227.549 147.612 228.48 148.523C229.411 149.435 230.574 149.891 231.967 149.891C232.546 149.891 233.106 149.796 233.646 149.607C234.193 149.419 234.698 149.139 235.16 148.768C235.622 148.396 235.993 147.892 236.273 147.254C236.553 146.616 236.693 145.89 236.693 145.076C236.693 144.412 236.596 143.807 236.4 143.26C236.205 142.706 235.945 142.247 235.619 141.883C235.3 141.518 234.926 141.209 234.496 140.955C234.073 140.701 233.633 140.519 233.178 140.408ZM248.408 152.195C244.723 152.195 242.725 150.906 242.412 148.328C242.38 148.048 242.363 147.693 242.363 147.264V147.137V138.123H244.824V146.922C244.824 147.41 244.87 147.82 244.961 148.152C245.059 148.478 245.251 148.777 245.537 149.051C246.169 149.656 247.126 149.959 248.408 149.959C249.326 149.959 250.088 149.796 250.693 149.471C251.299 149.145 251.686 148.686 251.855 148.094C251.94 147.807 251.982 147.417 251.982 146.922V138.123H254.424C254.424 140.154 254.424 141.818 254.424 143.113C254.43 144.402 254.434 145.229 254.434 145.594C254.434 145.952 254.434 146.242 254.434 146.463C254.44 146.684 254.443 146.867 254.443 147.01C254.443 147.316 254.434 147.592 254.414 147.84C254.401 148.081 254.349 148.39 254.258 148.768C254.173 149.145 254.053 149.48 253.896 149.773C253.747 150.06 253.519 150.363 253.213 150.682C252.913 151.001 252.555 151.264 252.139 151.473C251.729 151.681 251.204 151.854 250.566 151.99C249.928 152.127 249.209 152.195 248.408 152.195ZM257.809 150.721C258.069 149.959 258.411 149.246 258.834 148.582C259.264 147.918 259.71 147.355 260.172 146.893C260.641 146.43 261.129 146.001 261.637 145.604C262.145 145.2 262.623 144.852 263.072 144.559C263.521 144.259 263.928 143.979 264.293 143.719C264.658 143.452 264.947 143.191 265.162 142.938C265.377 142.677 265.484 142.42 265.484 142.166C265.484 141.658 265.178 141.215 264.566 140.838C263.961 140.454 263.219 140.262 262.34 140.262C261.272 140.262 259.98 140.522 258.463 141.043L258.092 141.17L257.34 139.158L257.691 139.002C259.221 138.351 260.891 138.025 262.701 138.025C264.329 138.025 265.621 138.38 266.578 139.09C267.535 139.793 268.014 140.678 268.014 141.746C268.014 142.208 267.919 142.641 267.73 143.045C267.548 143.449 267.294 143.813 266.969 144.139C266.65 144.464 266.288 144.78 265.885 145.086C265.488 145.392 265.058 145.711 264.596 146.043C264.14 146.368 263.697 146.704 263.268 147.049C262.838 147.387 262.415 147.791 261.998 148.26C261.588 148.729 261.246 149.22 260.973 149.734H268.268V152H257.809V150.721Z" fill="black"/>
<path d="M290.4 152H291.78L291.8 138.12H290.42L290.4 152ZM282.68 148.34H294.38V147.04H282.68V148.34ZM285.3 152H286.68L286.7 138.12H285.32L285.3 152ZM282.68 142.92H294.38V141.62H282.68V142.92ZM296.586 152H305.386V150.56H298.286L298.506 151.04C303.246 146.58 304.846 144.26 304.846 141.84C304.846 139.4 303.186 137.92 300.626 137.92C298.966 137.92 297.386 138.52 296.366 139.5L296.826 140.66C297.886 139.8 299.206 139.38 300.286 139.38C302.066 139.38 303.166 140.44 303.166 142.1C303.166 144.12 301.546 146.22 296.586 150.9V152ZM312.653 152.2C315.553 152.2 317.493 150.7 317.493 148.5C317.493 144.06 309.973 144.92 309.973 141.4C309.973 140.14 310.933 139.32 312.473 139.32C314.113 139.32 315.293 140.22 315.293 141.54C315.293 142.82 314.173 143.92 312.533 144.26L313.773 144.88C315.693 144.32 316.873 142.88 316.873 141.26C316.873 139.26 315.133 137.92 312.673 137.92C310.093 137.92 308.353 139.4 308.353 141.54C308.353 146.1 315.793 145.04 315.793 148.58C315.793 149.92 314.733 150.76 312.913 150.76C310.933 150.76 309.533 149.78 309.533 148.3C309.533 146.88 310.753 145.72 312.613 145.46L311.553 144.78C309.333 145.08 307.833 146.64 307.833 148.54C307.833 150.72 309.793 152.2 312.653 152.2ZM324.854 152.2C327.754 152.2 329.694 150.7 329.694 148.5C329.694 144.06 322.174 144.92 322.174 141.4C322.174 140.14 323.134 139.32 324.674 139.32C326.314 139.32 327.494 140.22 327.494 141.54C327.494 142.82 326.374 143.92 324.734 144.26L325.974 144.88C327.894 144.32 329.074 142.88 329.074 141.26C329.074 139.26 327.334 137.92 324.874 137.92C322.294 137.92 320.554 139.4 320.554 141.54C320.554 146.1 327.994 145.04 327.994 148.58C327.994 149.92 326.934 150.76 325.114 150.76C323.134 150.76 321.734 149.78 321.734 148.3C321.734 146.88 322.954 145.72 324.814 145.46L323.754 144.78C321.534 145.08 320.034 146.64 320.034 148.54C320.034 150.72 321.994 152.2 324.854 152.2ZM336.836 137.92C334.156 137.92 332.256 139.8 332.256 142.5C332.256 145 333.896 146.66 336.296 146.66C338.376 146.66 340.016 145.44 340.496 143.5L340.156 142.66C339.716 144.32 338.416 145.28 336.756 145.28C334.956 145.28 333.836 144.12 333.836 142.3C333.836 140.54 334.896 139.36 336.636 139.36C338.916 139.36 340.136 141.28 340.136 144.88C340.136 148.78 338.716 150.74 335.776 150.74C334.816 150.74 333.796 150.52 332.916 150.06L332.436 151.36C333.536 151.94 334.576 152.2 335.696 152.2C339.536 152.2 341.756 149.38 341.756 144.66C341.756 140.4 339.956 137.92 336.836 137.92ZM349.596 152.2C352.696 152.2 354.616 149.48 354.616 144.96C354.616 140.6 352.756 137.92 349.736 137.92C346.596 137.92 344.656 140.66 344.656 145.16C344.656 149.54 346.536 152.2 349.596 152.2ZM349.716 150.78C347.636 150.78 346.336 148.6 346.336 144.96C346.336 141.46 347.596 139.34 349.616 139.34C351.656 139.34 352.936 141.54 352.936 145.16C352.936 148.66 351.716 150.78 349.716 150.78ZM362.481 152.2C365.581 152.2 367.501 149.48 367.501 144.96C367.501 140.6 365.641 137.92 362.621 137.92C359.481 137.92 357.541 140.66 357.541 145.16C357.541 149.54 359.421 152.2 362.481 152.2ZM362.601 150.78C360.521 150.78 359.221 148.6 359.221 144.96C359.221 141.46 360.481 139.34 362.501 139.34C364.541 139.34 365.821 141.54 365.821 145.16C365.821 148.66 364.601 150.78 362.601 150.78ZM371.646 152H373.346L379.106 138.92V138.12H369.806V139.56H377.766L377.426 138.96L371.646 152ZM386.396 152.2C389.496 152.2 391.416 149.48 391.416 144.96C391.416 140.6 389.556 137.92 386.536 137.92C383.396 137.92 381.456 140.66 381.456 145.16C381.456 149.54 383.336 152.2 386.396 152.2ZM386.516 150.78C384.436 150.78 383.136 148.6 383.136 144.96C383.136 141.46 384.396 139.34 386.416 139.34C388.456 139.34 389.736 141.54 389.736 145.16C389.736 148.66 388.516 150.78 386.516 150.78ZM398.341 152.22C401.381 152.22 403.481 150.62 403.481 148.22C403.481 146.18 401.921 144.76 399.561 144.7L399.261 144.94C401.341 144.88 402.761 143.48 402.761 141.56C402.761 139.36 400.981 137.94 398.401 137.94C396.961 137.94 395.361 138.4 394.181 139.08L394.561 140.32C395.801 139.7 397.101 139.38 398.121 139.38C399.901 139.38 401.201 140.3 401.201 141.72C401.201 143.24 399.721 144.26 397.681 144.26H396.601V145.68H398.041C400.361 145.68 401.821 146.68 401.821 148.32C401.821 149.88 400.461 150.74 398.401 150.74C397.181 150.74 395.561 150.44 394.261 149.8L393.901 151.14C395.241 151.82 396.881 152.22 398.341 152.22ZM407.392 152H409.092L414.852 138.92V138.12H405.552V139.56H413.512L413.172 138.96L407.392 152Z" fill="#77767B"/>
<line x1="462" y1="141" x2="476" y2="141" stroke="black" stroke-width="2"/>
<line x1="462" y1="147" x2="476" y2="147" stroke="black" stroke-width="2"/>
<path d="M72.4941 138.123H75.3066V149.744H78.666V152H68.9785V149.744H72.4844V140.545L69.3887 141.6L68.4414 139.578L72.4941 138.123Z" fill="black"/>
<path d="M70.5156 108.578H72.4062V111.633H74.5625V108.578H76.4531V111.633H78.9219V113.445H76.4531V115.555H78.9219V117.367H76.4531V120.555H74.5625V117.367H72.4062V120.555H70.5156V117.367H68.0469V115.555H70.5156V113.445H68.0312V111.633H70.5156V108.578ZM72.4062 113.445V115.555H74.5625V113.445H72.4062ZM134.278 108.898H136.247V120H134.278V108.898ZM138.338 116.266C138.338 114.943 138.728 113.922 139.509 113.203C140.296 112.484 141.345 112.125 142.658 112.125C143.267 112.125 143.874 112.214 144.478 112.391V108.195H146.4V120H144.978L144.822 119.641C144.067 119.984 143.259 120.156 142.4 120.156C141.994 120.156 141.603 120.115 141.228 120.031C140.853 119.953 140.486 119.818 140.127 119.625C139.772 119.432 139.465 119.193 139.205 118.906C138.944 118.615 138.733 118.242 138.572 117.789C138.416 117.336 138.338 116.828 138.338 116.266ZM142.892 118.461C143.434 118.461 143.963 118.37 144.478 118.188V114.008C143.926 113.852 143.392 113.773 142.877 113.773C142.642 113.773 142.416 113.792 142.197 113.828C141.978 113.859 141.744 113.927 141.494 114.031C141.249 114.13 141.035 114.26 140.853 114.422C140.676 114.583 140.528 114.807 140.408 115.094C140.288 115.38 140.228 115.708 140.228 116.078C140.228 116.453 140.285 116.786 140.4 117.078C140.52 117.37 140.671 117.602 140.853 117.773C141.035 117.94 141.249 118.078 141.494 118.188C141.744 118.297 141.981 118.37 142.205 118.406C142.429 118.443 142.658 118.461 142.892 118.461ZM152.569 112.133C153.017 112.133 153.418 112.182 153.772 112.281C154.131 112.375 154.426 112.497 154.655 112.648C154.889 112.794 155.09 112.987 155.256 113.227C155.428 113.461 155.558 113.688 155.647 113.906C155.735 114.12 155.803 114.378 155.85 114.68C155.902 114.982 155.933 115.237 155.944 115.445C155.954 115.654 155.959 115.901 155.959 116.188V117.062H150.155C150.264 117.448 150.574 117.784 151.084 118.07C151.595 118.352 152.267 118.492 153.1 118.492C153.689 118.492 154.287 118.404 154.897 118.227L155.217 118.133L155.6 119.617L155.319 119.711C154.449 120.008 153.522 120.156 152.537 120.156C151.85 120.156 151.241 120.081 150.709 119.93C150.178 119.779 149.751 119.583 149.428 119.344C149.11 119.104 148.847 118.815 148.639 118.477C148.436 118.138 148.295 117.799 148.217 117.461C148.139 117.122 148.1 116.76 148.1 116.375C148.1 115.802 148.181 115.279 148.342 114.805C148.509 114.326 148.733 113.924 149.014 113.602C149.301 113.273 149.634 112.997 150.014 112.773C150.399 112.549 150.806 112.388 151.233 112.289C151.66 112.185 152.105 112.133 152.569 112.133ZM152.248 113.883C151.649 113.883 151.17 114.034 150.811 114.336C150.452 114.633 150.238 115.005 150.17 115.453H154.069C154.027 114.891 153.85 114.49 153.537 114.25C153.225 114.005 152.795 113.883 152.248 113.883ZM157.581 112.281H158.925L159.191 112.812C160.264 112.354 161.261 112.125 162.183 112.125C162.683 112.125 163.115 112.193 163.48 112.328C163.844 112.464 164.131 112.633 164.339 112.836C164.547 113.039 164.711 113.297 164.831 113.609C164.956 113.917 165.037 114.211 165.073 114.492C165.11 114.773 165.128 115.091 165.128 115.445V120H163.206V115.469C163.206 115.323 163.198 115.198 163.183 115.094C163.172 114.984 163.136 114.852 163.073 114.695C163.011 114.534 162.925 114.404 162.816 114.305C162.706 114.201 162.54 114.112 162.316 114.039C162.097 113.961 161.836 113.922 161.534 113.922C160.925 113.922 160.248 114.065 159.503 114.352V120H157.581V112.281ZM172.281 119.859C171.516 120.057 170.875 120.156 170.359 120.156C169.865 120.156 169.438 120.107 169.078 120.008C168.724 119.909 168.445 119.784 168.242 119.633C168.039 119.477 167.878 119.279 167.758 119.039C167.643 118.794 167.568 118.557 167.531 118.328C167.495 118.099 167.477 117.831 167.477 117.523V113.93H166.281V112.281H167.477V110.07H169.398V112.281H172.234V113.93H169.398V117.391C169.398 117.521 169.419 117.646 169.461 117.766C169.508 117.885 169.581 118.005 169.68 118.125C169.779 118.245 169.927 118.341 170.125 118.414C170.323 118.482 170.557 118.516 170.828 118.516C170.969 118.516 171.349 118.464 171.969 118.359L172.273 118.305L172.578 119.781L172.281 119.859ZM173.567 108.898H175.723V111.016H173.567V108.898ZM173.684 112.281H175.606V120H173.684V112.281ZM182.759 119.859C181.994 120.057 181.353 120.156 180.838 120.156C180.343 120.156 179.916 120.107 179.556 120.008C179.202 119.909 178.923 119.784 178.72 119.633C178.517 119.477 178.356 119.279 178.236 119.039C178.121 118.794 178.046 118.557 178.009 118.328C177.973 118.099 177.955 117.831 177.955 117.523V113.93H176.759V112.281H177.955V110.07H179.877V112.281H182.713V113.93H179.877V117.391C179.877 117.521 179.897 117.646 179.939 117.766C179.986 117.885 180.059 118.005 180.158 118.125C180.257 118.245 180.405 118.341 180.603 118.414C180.801 118.482 181.035 118.516 181.306 118.516C181.447 118.516 181.827 118.464 182.447 118.359L182.752 118.305L183.056 119.781L182.759 119.859ZM183.147 112.281H185.35L187.889 118.211L190.202 112.281H192.225L187.209 124.148H184.866L186.772 120.062L183.147 112.281Z" fill="#9A9996"/>
<mask id="path-29-outside-3_250_100" maskUnits="userSpaceOnUse" x="52" y="48" width="441" height="54" fill="black">
<rect fill="white" x="52" y="48" width="441" height="54"/>
<path d="M53 61C53 54.3726 58.3726 49 65 49H480C486.627 49 492 54.3726 492 61V102H53V61Z"/>
</mask>
<path d="M53 61C53 54.3726 58.3726 49 65 49H480C486.627 49 492 54.3726 492 61V102H53V61Z" fill="#EBEBEB"/>
<path d="M52 61C52 53.8203 57.8203 48 65 48H480C487.18 48 493 53.8203 493 61H491C491 54.9249 486.075 50 480 50H65C58.9249 50 54 54.9249 54 61H52ZM492 102H53H492ZM52 102V61C52 53.8203 57.8203 48 65 48V50C58.9249 50 54 54.9249 54 61V102H52ZM480 48C487.18 48 493 53.8203 493 61V102H491V61C491 54.9249 486.075 50 480 50V48Z" fill="#B3B3B3" mask="url(#path-29-outside-3_250_100)"/>
<line x1="53" y1="101.5" x2="492" y2="101.5" stroke="#DBDBDB"/>
<rect x="69" y="75" width="14" height="2" fill="#2F2F2F"/>
<rect x="75" y="69" width="2" height="14" fill="#2F2F2F"/>
<rect x="98" y="59" width="250" height="34" rx="8" fill="#DFE0E0"/>
<path d="M123.523 79.3984C123.523 77.4141 124.109 75.8828 125.281 74.8047C126.461 73.7266 128.035 73.1875 130.004 73.1875C130.918 73.1875 131.828 73.3203 132.734 73.5859V67.293H135.617V85H133.484L133.25 84.4609C132.117 84.9766 130.906 85.2344 129.617 85.2344C129.008 85.2344 128.422 85.1719 127.859 85.0469C127.297 84.9297 126.746 84.7266 126.207 84.4375C125.676 84.1484 125.215 83.7891 124.824 83.3594C124.434 82.9219 124.117 82.3633 123.875 81.6836C123.641 81.0039 123.523 80.2422 123.523 79.3984ZM130.355 82.6914C131.168 82.6914 131.961 82.5547 132.734 82.2812V76.0117C131.906 75.7773 131.105 75.6602 130.332 75.6602C129.98 75.6602 129.641 75.6875 129.312 75.7422C128.984 75.7891 128.633 75.8906 128.258 76.0469C127.891 76.1953 127.57 76.3906 127.297 76.6328C127.031 76.875 126.809 77.2109 126.629 77.6406C126.449 78.0703 126.359 78.5625 126.359 79.1172C126.359 79.6797 126.445 80.1797 126.617 80.6172C126.797 81.0547 127.023 81.4023 127.297 81.6602C127.57 81.9102 127.891 82.1172 128.258 82.2812C128.633 82.4453 128.988 82.5547 129.324 82.6094C129.66 82.6641 130.004 82.6914 130.355 82.6914ZM144.27 73.1992C144.942 73.1992 145.544 73.2734 146.075 73.4219C146.614 73.5625 147.055 73.7461 147.399 73.9727C147.751 74.1914 148.052 74.4805 148.302 74.8398C148.559 75.1914 148.755 75.5312 148.887 75.8594C149.02 76.1797 149.122 76.5664 149.192 77.0195C149.27 77.4727 149.317 77.8555 149.333 78.168C149.348 78.4805 149.356 78.8516 149.356 79.2812V80.5938H140.649C140.813 81.1719 141.278 81.6758 142.044 82.1055C142.809 82.5273 143.817 82.7383 145.067 82.7383C145.95 82.7383 146.848 82.6055 147.762 82.3398L148.243 82.1992L148.817 84.4258L148.395 84.5664C147.091 85.0117 145.7 85.2344 144.223 85.2344C143.192 85.2344 142.278 85.1211 141.481 84.8945C140.684 84.668 140.044 84.375 139.559 84.0156C139.083 83.6562 138.688 83.2227 138.376 82.7148C138.071 82.207 137.86 81.6992 137.743 81.1914C137.626 80.6836 137.567 80.1406 137.567 79.5625C137.567 78.7031 137.688 77.918 137.93 77.207C138.18 76.4883 138.516 75.8867 138.938 75.4023C139.368 74.9102 139.868 74.4961 140.438 74.1602C141.016 73.8242 141.626 73.582 142.266 73.4336C142.907 73.2773 143.575 73.1992 144.27 73.1992ZM143.79 75.8242C142.891 75.8242 142.173 76.0508 141.634 76.5039C141.095 76.9492 140.774 77.5078 140.673 78.1797H146.52C146.458 77.3359 146.192 76.7344 145.723 76.375C145.255 76.0078 144.61 75.8242 143.79 75.8242ZM152.572 72.7305C152.572 72.4727 152.572 72.2656 152.572 72.1094C152.58 71.9531 152.599 71.7383 152.63 71.4648C152.662 71.1914 152.705 70.9648 152.759 70.7852C152.822 70.6055 152.908 70.3945 153.017 70.1523C153.134 69.9023 153.271 69.6992 153.427 69.543C153.591 69.3789 153.798 69.2109 154.048 69.0391C154.298 68.8594 154.584 68.7188 154.904 68.6172C155.224 68.5078 155.603 68.4219 156.041 68.3594C156.478 68.2891 156.962 68.2539 157.494 68.2539C158.47 68.2539 159.494 68.4141 160.564 68.7344L160.986 68.8633L160.505 71.207L160.013 71.0898C159.271 70.9102 158.693 70.8203 158.279 70.8203C157.318 70.8203 156.607 70.9805 156.146 71.3008C155.685 71.6211 155.455 72.0703 155.455 72.6484V73.4219H160.084V75.8945H155.455V85H152.572V75.8945H150.662V73.4219H152.572V72.7305ZM165.807 73.1992C166.651 73.1992 167.389 73.2773 168.022 73.4336C168.662 73.582 169.178 73.7812 169.569 74.0312C169.959 74.2812 170.276 74.5938 170.518 74.9688C170.76 75.3438 170.924 75.7266 171.01 76.1172C171.104 76.5 171.151 76.9297 171.151 77.4062V85H168.995L168.666 84.2383C167.627 84.9023 166.444 85.2344 165.116 85.2344C163.67 85.2344 162.498 84.8945 161.6 84.2148C160.702 83.5352 160.252 82.7305 160.252 81.8008C160.252 81.2227 160.397 80.7188 160.686 80.2891C160.983 79.8594 161.37 79.5156 161.846 79.2578C162.323 79 162.92 78.7891 163.639 78.625C164.358 78.4609 165.077 78.3477 165.795 78.2852C166.522 78.2227 167.342 78.1875 168.256 78.1797V77.7812C168.256 77.4844 168.229 77.2383 168.174 77.043C168.127 76.8477 168.018 76.6406 167.846 76.4219C167.674 76.2031 167.385 76.0391 166.979 75.9297C166.58 75.8125 166.069 75.7539 165.444 75.7539C164.569 75.7539 163.409 75.9258 161.963 76.2695L161.495 76.3984L160.897 74.0898L161.307 73.9492C162.752 73.4492 164.252 73.1992 165.807 73.1992ZM168.256 82.0117V80.3594H167.975C166.397 80.3594 165.221 80.4531 164.448 80.6406C163.682 80.8281 163.299 81.1445 163.299 81.5898C163.299 81.8711 163.534 82.1367 164.002 82.3867C164.471 82.6367 165.045 82.7617 165.725 82.7617C166.686 82.7617 167.53 82.5117 168.256 82.0117ZM182.195 73.4219H185.077V85H182.933L182.593 84.2148C181.023 84.8945 179.511 85.2344 178.058 85.2344C177.3 85.2344 176.644 85.1367 176.089 84.9414C175.534 84.7383 175.097 84.4844 174.777 84.1797C174.464 83.8672 174.214 83.4805 174.027 83.0195C173.839 82.5586 173.718 82.1172 173.663 81.6953C173.609 81.2734 173.581 80.7969 173.581 80.2656V73.4219H176.464V80.2422C176.464 80.4453 176.472 80.625 176.487 80.7812C176.511 80.9375 176.57 81.1367 176.663 81.3789C176.757 81.6133 176.89 81.8086 177.062 81.9648C177.234 82.1211 177.491 82.2578 177.835 82.375C178.179 82.4922 178.585 82.5508 179.054 82.5508C179.991 82.5508 181.038 82.3359 182.195 81.9062V73.4219ZM187.742 67.293H190.625V85H187.742V67.293ZM200.989 84.7891C199.841 85.0859 198.88 85.2344 198.106 85.2344C197.364 85.2344 196.723 85.1602 196.184 85.0117C195.653 84.8633 195.235 84.6758 194.93 84.4492C194.626 84.2148 194.384 83.918 194.204 83.5586C194.032 83.1914 193.919 82.8359 193.864 82.4922C193.809 82.1484 193.782 81.7461 193.782 81.2852V75.8945H191.989V73.4219H193.782V70.1055H196.665V73.4219H200.919V75.8945H196.665V81.0859C196.665 81.2812 196.696 81.4688 196.759 81.6484C196.829 81.8281 196.938 82.0078 197.087 82.1875C197.235 82.3672 197.458 82.5117 197.755 82.6211C198.052 82.7227 198.403 82.7734 198.809 82.7734C199.02 82.7734 199.591 82.6953 200.52 82.5391L200.977 82.457L201.434 84.6719L200.989 84.7891Z" fill="#3D3846"/>
<path d="M114 67L118.33 72.25H109.67L114 67Z" fill="#3D3846"/>
<path d="M114 85L109.67 79.75H118.33L114 85Z" fill="#3D3846"/>
<path d="M331 79L324.938 73H337.062L331 79Z" fill="#3D3846"/>
<path d="M377 76L367.25 81.1962V70.8038L377 76Z" fill="#33D17A"/>
<rect x="350" y="58" width="36" height="36" rx="8" fill="#EBEBEB"/>
<path d="M373 74.268C374.333 75.0378 374.333 76.9623 373 77.7321L365.5 82.0622C364.167 82.832 362.5 81.8697 362.5 80.3301V71.6699C362.5 70.1303 364.167 69.168 365.5 69.9378L373 74.268Z" fill="#33D17A"/>
<line x1="387.5" y1="65" x2="387.5" y2="87" stroke="#DEDDDA"/>
<path d="M399 79L392.072 73H405.928L399 79Z" fill="#C0BFBC"/>
<path d="M469 88C462.373 88 457 82.6274 457 76C457 69.3726 462.373 64 469 64C475.627 64 481 69.3726 481 76C481 82.6274 475.627 88 469 88Z" fill="#D8D8D8"/>
<path d="M472.998 72H471.998C471.988 71.9999 471.978 71.9995 471.967 72C471.712 72.0112 471.457 72.1286 471.28 72.3125L468.998 74.5937L466.686 72.3125C466.42 72.082 466.239 72.007 465.998 72H464.998V73C464.998 73.2865 465.033 73.5506 465.248 73.75L467.53 76.0312L465.28 78.2812C465.091 78.4694 464.998 78.7347 464.998 79V80H465.998C466.264 80 466.529 79.9069 466.717 79.7187L468.998 77.4375L471.28 79.7187C471.468 79.9069 471.733 80 471.998 80H472.998V79C472.998 78.7347 472.905 78.4694 472.717 78.2812L470.436 76.0312L472.717 73.75C472.928 73.5554 473.02 73.2807 472.998 73V72Z" fill="#2E3436"/>
<path d="M435 70.0039H421V72.0039H435V70.0039Z" fill="#2E3436"/>
<path d="M435 75.0039H421V77.0039H435V75.0039Z" fill="#2E3436"/>
<path d="M435 80.0039H421V82.0039H435V80.0039Z" fill="#2E3436"/>
</g>
<defs>
<filter id="filter0_d_250_100" x="0" y="0" width="545" height="806" filterUnits="userSpaceOnUse" color-interpolation-filters="sRGB">
<feFlood flood-opacity="0" result="BackgroundImageFix"/>
<feColorMatrix in="SourceAlpha" type="matrix" values="0 0 0 0 0 0 0 0 0 0 0 0 0 0 0 0 0 0 127 0" result="hardAlpha"/>
<feOffset dy="4"/>
<feGaussianBlur stdDeviation="26"/>
<feComposite in2="hardAlpha" operator="out"/>
<feColorMatrix type="matrix" values="0 0 0 0 0 0 0 0 0 0 0 0 0 0 0 0 0 0 0.25 0"/>
<feBlend mode="normal" in2="BackgroundImageFix" result="effect1_dropShadow_250_100"/>
<feBlend mode="normal" in="SourceGraphic" in2="effect1_dropShadow_250_100" result="shape"/>
</filter>
</defs>
</svg>
